<?xml version="1.0" encoding="UTF-8" standalone="no"?>
<svg
   xmlns:dc="http://purl.org/dc/elements/1.1/"
   xmlns:cc="http://creativecommons.org/ns#"
   xmlns:rdf="http://www.w3.org/1999/02/22-rdf-syntax-ns#"
   xmlns:svg="http://www.w3.org/2000/svg"
   xmlns="http://www.w3.org/2000/svg"
   xmlns:sodipodi="http://sodipodi.sourceforge.net/DTD/sodipodi-0.dtd"
   xmlns:inkscape="http://www.inkscape.org/namespaces/inkscape"
   version="1.1"
   id="Capa_1"
   x="0px"
   y="0px"
   width="569.16px"
   height="569.16px"
   viewBox="0 0 569.16 569.16"
   style="enable-background:new 0 0 569.16 569.16;"
   xml:space="preserve"
   sodipodi:docname="black-lightbulb.svg"
   inkscape:version="1.0.1 (3bc2e813f5, 2020-09-07)"><metadata
   id="metadata138"><rdf:RDF><cc:Work
       rdf:about=""><dc:format>image/svg+xml</dc:format><dc:type
         rdf:resource="http://purl.org/dc/dcmitype/StillImage" /><dc:title></dc:title></cc:Work></rdf:RDF></metadata><defs
   id="defs136" /><sodipodi:namedview
   pagecolor="#ffffff"
   bordercolor="#666666"
   borderopacity="1"
   objecttolerance="10"
   gridtolerance="10"
   guidetolerance="10"
   inkscape:pageopacity="0"
   inkscape:pageshadow="2"
   inkscape:window-width="1864"
   inkscape:window-height="1016"
   id="namedview134"
   showgrid="false"
   inkscape:zoom="1.4495046"
   inkscape:cx="284.57999"
   inkscape:cy="284.57999"
   inkscape:window-x="0"
   inkscape:window-y="27"
   inkscape:window-maximized="1"
   inkscape:current-layer="Capa_1" />
<g
   id="g101">
	<g
   id="g99">
		<path
   d="M220.875,515.154H348.29c10.549,0,19.08-8.534,19.08-19.079s-8.535-19.079-19.08-19.079H220.875    c-10.545,0-19.079,8.534-19.079,19.079S210.328,515.154,220.875,515.154z"
   id="path93" />
		<path
   d="M220.875,569.16H348.29c10.549,0,19.08-8.534,19.08-19.079s-8.535-19.079-19.08-19.079H220.875    c-10.545,0-19.079,8.534-19.079,19.079S210.328,569.16,220.875,569.16z"
   id="path95" />
		<path
   d="M284.582,0C179.195,0,93.784,85.411,93.784,190.797c0,66.962,34.896,125.234,87.143,159.251    c4.489,2.922,8.256,9.434,8.256,14.792v54.915c0,21.092,17.068,38.158,38.158,38.158h114.478    c21.053,0,38.158-17.069,38.158-38.158v-54.918c0-5.358,3.77-11.867,8.262-14.789c52.242-33.987,87.137-92.29,87.137-159.251    C475.378,85.411,389.968,0,284.582,0z"
   id="path97" />
	</g>
</g>
<g
   id="g103">
</g>
<g
   id="g105">
</g>
<g
   id="g107">
</g>
<g
   id="g109">
</g>
<g
   id="g111">
</g>
<g
   id="g113">
</g>
<g
   id="g115">
</g>
<g
   id="g117">
</g>
<g
   id="g119">
</g>
<g
   id="g121">
</g>
<g
   id="g123">
</g>
<g
   id="g125">
</g>
<g
   id="g127">
</g>
<g
   id="g129">
</g>
<g
   id="g131">
</g>
</svg>
